<?xml version="1.0" standalone="no"?>
<!DOCTYPE svg PUBLIC "-//W3C//DTD SVG 20010904//EN"
 "http://www.w3.org/TR/2001/REC-SVG-20010904/DTD/svg10.dtd">
<svg version="1.0" xmlns="http://www.w3.org/2000/svg"
 width="450.000000pt" height="450.000000pt" viewBox="0 0 450.000000 450.000000"
 preserveAspectRatio="xMidYMid meet">
<metadata>
Created by potrace 1.11, written by Peter Selinger 2001-2013
</metadata>
<g transform="translate(0.000000,450.000000) scale(0.100000,-0.100000)"
fill="#000000" stroke="none">
<path d="M2070 4494 c-287 -26 -571 -106 -817 -229 -458 -229 -789 -560 -1019
-1019 -340 -680 -305 -1502 92 -2158 359 -593 979 -989 1673 -1068 139 -16
496 -8 616 15 285 52 519 136 745 265 586 337 972 885 1101 1565 27 140 37
482 19 636 -46 403 -192 771 -438 1103 -94 126 -316 349 -444 444 -302 226
-644 369 -1018 427 -101 15 -417 27 -510 19z m380 -139 c47 -4 140 -17 208
-31 736 -147 1335 -672 1581 -1387 83 -241 117 -479 108 -751 -8 -235 -47
-440 -124 -646 -218 -585 -670 -1037 -1255 -1254 -208 -77 -408 -115 -644
-123 -275 -9 -485 20 -736 103 -759 252 -1301 898 -1424 1699 -23 152 -23 432
0 590 67 450 262 847 575 1169 325 334 720 540 1181 616 154 26 304 30 530 15z"/>
<path d="M1985 4164 c-322 -43 -627 -168 -891 -365 -245 -183 -433 -409 -574
-689 -47 -94 -120 -274 -120 -297 0 -12 761 17 1005 38 458 39 855 123 1052
222 134 68 156 131 80 233 -63 86 -235 238 -409 363 -27 19 -48 40 -48 46 0 7
34 86 76 176 42 90 89 192 104 227 l29 62 -102 -1 c-56 -1 -147 -7 -202 -15z"/>
<path d="M2873 4068 c3 -7 22 -50 42 -95 71 -162 79 -210 79 -468 0 -195 -3
-248 -22 -347 -82 -436 -284 -717 -646 -900 -366 -184 -783 -254 -1663 -276
-172 -4 -315 -11 -319 -14 -3 -4 3 -56 15 -115 86 -427 345 -844 696 -1118
222 -173 506 -309 766 -366 170 -37 520 -65 542 -43 3 3 -29 32 -72 64 -120
89 -280 230 -376 332 -99 105 -209 237 -203 243 2 2 47 -12 98 -31 379 -143
844 -215 1083 -170 256 49 535 201 755 411 115 109 272 308 272 343 0 5 -62
16 -137 25 -312 39 -580 111 -726 198 -150 88 -258 234 -288 387 -14 77 -7
245 16 351 70 330 310 743 548 942 77 65 176 120 261 144 l58 17 -58 55 c-199
184 -396 313 -626 407 -96 40 -102 41 -95 24z m-1688 -2318 l111 -110 108 110
c69 71 115 110 129 110 28 0 297 -266 297 -294 0 -24 -266 -296 -290 -296 -8
0 -65 51 -127 112 l-113 113 -113 -113 c-62 -61 -119 -112 -128 -112 -8 0 -79
65 -158 144 -139 141 -142 145 -129 170 23 43 260 276 281 276 12 0 65 -44
132 -110z m273 -436 c98 -93 142 -142 142 -157 0 -15 -47 -69 -145 -167 l-145
-144 -132 129 c-175 171 -174 170 -154 200 31 47 259 275 275 275 9 0 80 -61
159 -136z"/>
<path d="M3442 2859 c-78 -39 -174 -133 -197 -194 -48 -123 30 -212 244 -279
82 -26 525 -96 536 -85 11 11 -37 166 -75 243 -79 163 -193 279 -316 325 -76
29 -120 27 -192 -10z"/>
</g>
</svg>
