<svg xmlns="http://www.w3.org/2000/svg" width="600" height="600" viewBox="0 0 450 450"><path d="M207 .6c-28.7 2.6-57.1 10.6-81.7 22.9-45.8 22.9-78.9 56-101.9 101.9-34 68-30.5 150.2 9.2 215.8 35.9 59.3 97.9 98.9 167.3 106.8 13.9 1.6 49.6.8 61.6-1.5 28.5-5.2 51.9-13.6 74.5-26.5 58.6-33.7 97.2-88.5 110.1-156.5 2.7-14 3.7-48.2 1.9-63.6-4.6-40.3-19.2-77.1-43.8-110.3-9.4-12.6-31.6-34.9-44.4-44.4C329.6 22.6 295.4 8.3 258 2.5 247.9 1 216.3-.2 207 .6m38 13.9c4.7.4 14 1.7 20.8 3.1 73.6 14.7 133.5 67.2 158.1 138.7 8.3 24.1 11.7 47.9 10.8 75.1-.8 23.5-4.7 44-12.4 64.6-21.8 58.5-67 103.7-125.5 125.4-20.8 7.7-40.8 11.5-64.4 12.3-27.5.9-48.5-2-73.6-10.3-75.9-25.2-130.1-89.8-142.4-169.9-2.3-15.2-2.3-43.2 0-59 6.7-45 26.2-84.7 57.5-116.9 32.5-33.4 72-54 118.1-61.6 15.4-2.6 30.4-3 53-1.5"/><path d="M198.5 33.6c-32.2 4.3-62.7 16.8-89.1 36.5C84.9 88.4 66.1 111 52 139c-4.7 9.4-12 27.4-12 29.7 0 1.2 76.1-1.7 100.5-3.8 45.8-3.9 85.5-12.3 105.2-22.2 13.4-6.8 15.6-13.1 8-23.3-6.3-8.6-23.5-23.8-40.9-36.3-2.7-1.9-4.8-4-4.8-4.6 0-.7 3.4-8.6 7.6-17.6s8.9-19.2 10.4-22.7l2.9-6.2-10.2.1c-5.6.1-14.7.7-20.2 1.5"/><path d="M287.3 43.2c.3.7 2.2 5 4.2 9.5 7.1 16.2 7.9 21 7.9 46.8 0 19.5-.3 24.8-2.2 34.7-8.2 43.6-28.4 71.7-64.6 90-36.6 18.4-78.3 25.4-166.3 27.6-17.2.4-31.5 1.1-31.9 1.4-.3.4.3 5.6 1.5 11.5 8.6 42.7 34.5 84.4 69.6 111.8 22.2 17.3 50.6 30.9 76.6 36.6 17 3.7 52 6.5 54.2 4.3.3-.3-2.9-3.2-7.2-6.4-12-8.9-28-23-37.6-33.2-9.9-10.5-20.9-23.7-20.3-24.3.2-.2 4.7 1.2 9.8 3.1 37.9 14.3 84.4 21.5 108.3 17 25.6-4.9 53.5-20.1 75.5-41.1 11.5-10.9 27.2-30.8 27.2-34.3 0-.5-6.2-1.6-13.7-2.5-31.2-3.9-58-11.1-72.6-19.8-15-8.8-25.8-23.4-28.8-38.7-1.4-7.7-.7-24.5 1.6-35.1 7-33 31-74.3 54.8-94.2 7.7-6.5 17.6-12 26.1-14.4l5.8-1.7-5.8-5.5c-19.9-18.4-39.6-31.3-62.6-40.7-9.6-4-10.2-4.1-9.5-2.4M118.5 275l11.1 11 10.8-11c6.9-7.1 11.5-11 12.9-11 2.8 0 29.7 26.6 29.7 29.4 0 2.4-26.6 29.6-29 29.6-.8 0-6.5-5.1-12.7-11.2L130 300.5l-11.3 11.3c-6.2 6.1-11.9 11.2-12.8 11.2-.8 0-7.9-6.5-15.8-14.4-13.9-14.1-14.2-14.5-12.9-17 2.3-4.3 26-27.6 28.1-27.6 1.2 0 6.5 4.4 13.2 11m27.3 43.6c9.8 9.3 14.2 14.2 14.2 15.7s-4.7 6.9-14.5 16.7L131 365.4l-13.2-12.9c-17.5-17.1-17.4-17-15.4-20 3.1-4.7 25.9-27.5 27.5-27.5.9 0 8 6.1 15.9 13.6"/><path d="M344.2 164.1c-7.8 3.9-17.4 13.3-19.7 19.4-4.8 12.3 3 21.2 24.4 27.9 8.2 2.6 52.5 9.6 53.6 8.5s-3.7-16.6-7.5-24.3c-7.9-16.3-19.3-27.9-31.6-32.5-7.6-2.9-12-2.7-19.2 1"/></svg>